<svg width="52" height="52" viewBox="0 0 52 52" fill="none" xmlns="http://www.w3.org/2000/svg">
<mask id="mask0_8_21" style="mask-type:luminance" maskUnits="userSpaceOnUse" x="0" y="1" width="52" height="51">
<path d="M0.576233 1.11163H51.5553V51.0062H0.576233V1.11163Z" fill="white"/>
</mask>
<g mask="url(#mask0_8_21)">
<path fill-rule="evenodd" clip-rule="evenodd" d="M26.0658 21.3535V6.73572H3.56357C2.46839 6.73572 1.57166 7.61394 1.57166 8.68514V21.3535H26.0658ZM50.0611 21.3535H26.0658V35.9713H50.5588V21.3535H50.0611Z" fill="#607987" fill-opacity="0.1"/>
<path d="M48.568 5.76044H3.56358C1.91656 5.76044 0.576233 7.07199 0.576233 8.68399V37.9195C0.576233 39.5315 1.91656 40.8431 3.56358 40.8431H20.9273L19.3259 46.6902H18.0992C16.7779 46.7411 16.779 48.5876 18.0992 48.6385H34.0303C35.3504 48.5876 35.3504 46.7411 34.0303 46.6902H32.8024L31.201 40.8431H48.5669C50.2139 40.8431 51.5543 39.5315 51.5543 37.9195V8.68399C51.5543 7.07199 50.215 5.76044 48.568 5.76044ZM39.919 29.0703C39.8299 31.1572 36.7937 31.1549 36.7056 29.0703V27.7969C36.7056 26.9302 37.4273 26.2253 38.3123 26.2253C39.1984 26.2253 39.919 26.9302 39.919 27.7969V29.0703ZM36.261 31.9615C37.4251 32.7935 39.2006 32.7935 40.3647 31.9615C41.2986 32.6132 41.8706 33.6798 41.8706 34.8007V34.996H34.754V34.7995C34.754 33.6787 35.326 32.6132 36.261 31.9615ZM41.6233 30.4477C41.808 30.0248 41.9099 29.5591 41.9099 29.0703V27.7969C41.7114 23.125 34.9111 23.1284 34.7148 27.7969V29.0703C34.7148 29.5591 34.8166 30.0248 35.0013 30.4489C33.609 31.4692 32.7621 33.0928 32.7621 34.8007V34.996H19.3673V34.7995C19.3673 33.0928 18.5215 31.4692 17.1292 30.4489C17.3139 30.0248 17.4157 29.5591 17.4157 29.0703V27.7969C17.2184 23.125 10.417 23.1284 10.2206 27.7969V29.0703C10.2206 29.5591 10.3236 30.0248 10.5072 30.4489C9.11484 31.4692 8.26905 33.0928 8.26905 34.8007V34.996H2.56815V22.3276H49.5645V34.996H43.8625V34.7995C43.8625 33.0928 43.0167 31.4681 41.6233 30.4477ZM15.4249 29.0703C15.3368 31.1572 12.3006 31.1549 12.2126 29.0703V27.7969C12.3006 25.7111 15.3368 25.7134 15.4249 27.7969V29.0703ZM11.7668 31.9615C12.931 32.7935 14.7064 32.7935 15.8706 31.9615C16.8045 32.6132 17.3765 33.6798 17.3765 34.8007V34.996H10.261V34.7995C10.261 33.6787 10.8319 32.6132 11.7668 31.9615ZM15.4249 14.4537C15.3368 16.5395 12.3006 16.5383 12.2126 14.4537V13.1803C12.3006 11.0945 15.3368 11.0956 15.4249 13.1803V14.4537ZM11.7668 17.3437C12.931 18.1769 14.7064 18.1769 15.8706 17.3437C16.8045 17.9966 17.3765 19.062 17.3765 20.1829V20.3794H10.261V20.1829C10.261 19.062 10.8319 17.9966 11.7668 17.3437ZM39.919 14.4537C39.8299 16.5395 36.7937 16.5383 36.7056 14.4537V13.1803C36.7056 12.3136 37.4273 11.6087 38.3123 11.6087C39.1984 11.6087 39.919 12.3136 39.919 13.1803V14.4537ZM36.261 17.3437C37.4251 18.1769 39.2006 18.1769 40.3647 17.3437C41.2986 17.9966 41.8706 19.062 41.8706 20.1829V20.3794H34.754V20.1829C34.754 19.062 35.326 17.9966 36.261 17.3437ZM3.56358 7.70986H48.568C49.1166 7.70986 49.5634 8.14666 49.5634 8.68399V20.3782H43.8615V20.1829C43.8615 18.475 43.0157 16.8515 41.6223 15.8311C41.808 15.4082 41.9099 14.9413 41.9099 14.4537V13.1803C41.7114 8.50835 34.9111 8.51182 34.7148 13.1803V14.4537C34.7148 14.9425 34.8166 15.4082 35.0013 15.8311C33.609 16.8515 32.7621 18.475 32.7621 20.1829V20.3794H19.3673V20.1829C19.3673 18.475 18.5215 16.8515 17.1292 15.8311C17.3139 15.4082 17.4157 14.9413 17.4157 14.4537V13.1803C17.2184 8.50719 10.417 8.51182 10.2206 13.1803V14.4537C10.2206 14.9425 10.3236 15.4082 10.5072 15.8311C9.11484 16.8515 8.26905 18.475 8.26905 20.1829V20.3794H2.56815V8.68399C2.56815 8.1455 3.01493 7.7087 3.56464 7.7087L3.56358 7.70986ZM30.7415 46.6902H21.389L22.9904 40.8431H29.1412L30.7415 46.6902ZM49.5634 37.9195C49.5634 38.4569 49.1177 38.8937 48.568 38.8937H3.56358C3.01387 38.8937 2.56709 38.4569 2.56709 37.9195V36.9443H49.5634V37.9195Z" fill="white"/>
</g>
</svg>
