<svg width="49" height="49" viewBox="0 0 49 49" fill="none" xmlns="http://www.w3.org/2000/svg">
<g clip-path="url(#clip0_8_28)">
<mask id="mask0_8_28" style="mask-type:luminance" maskUnits="userSpaceOnUse" x="0" y="0" width="49" height="49">
<path d="M49 0H0V49H49V0Z" fill="white"/>
</mask>
<g mask="url(#mask0_8_28)">
<path d="M12.7286 32.5191C10.9871 32.5191 9.28481 32.0027 7.8369 31.0353C6.38898 30.0678 5.26046 28.6926 4.59405 27.0838C3.92765 25.475 3.75328 23.7046 4.09301 21.9967C4.43274 20.2887 5.27131 18.7199 6.50267 17.4886C7.73403 16.2572 9.30286 15.4186 11.0108 15.0789C12.7188 14.7392 14.4891 14.9135 16.0979 15.5799C17.7068 16.2463 19.0819 17.3749 20.0494 18.8228C21.0168 20.2708 21.5333 21.973 21.5333 23.7144C21.5305 26.0488 20.602 28.2867 18.9514 29.9373C17.3008 31.5879 15.0628 32.5164 12.7286 32.5191ZM12.7286 16.8238C11.3657 16.8238 10.0335 17.228 8.90029 17.9851C7.76713 18.7423 6.88395 19.8184 6.36241 21.0775C5.84088 22.3366 5.70442 23.7221 5.97029 25.0587C6.23617 26.3954 6.89244 27.6231 7.85611 28.5868C8.81978 29.5505 10.0476 30.2067 11.3842 30.4727C12.7209 30.7385 14.1064 30.6021 15.3655 30.0806C16.6246 29.559 17.7007 28.6758 18.4579 27.5427C19.215 26.4094 19.6192 25.0773 19.6192 23.7144C19.6171 21.8876 18.8905 20.136 17.5987 18.8442C16.3069 17.5524 14.5554 16.8259 12.7286 16.8238Z" fill="white"/>
<path d="M24.5 48.9991H0.957031C0.703211 48.9991 0.459786 48.8983 0.280308 48.7188C0.10083 48.5394 0 48.296 0 48.0421V43.3335C0 39.9577 1.34104 36.7201 3.72809 34.3331C6.11516 31.946 9.3527 30.605 12.7286 30.605C16.1044 30.605 19.3418 31.946 21.7289 34.3331C24.116 36.7201 25.457 39.9577 25.457 43.3335V48.0421C25.457 48.296 25.3562 48.5394 25.1767 48.7188C24.9972 48.8983 24.7538 48.9991 24.5 48.9991ZM1.91406 47.0851H23.543V43.3335C23.543 40.4654 22.4036 37.7146 20.3755 35.6865C18.3473 33.6585 15.5967 32.5191 12.7286 32.5191C9.86034 32.5191 7.10964 33.6585 5.08155 35.6865C3.05344 37.7146 1.91406 40.4654 1.91406 43.3335V47.0851Z" fill="white"/>
<path d="M36.2715 17.6732C34.5301 17.6732 32.8278 17.1568 31.3799 16.1893C29.932 15.2218 28.8034 13.8468 28.137 12.2378C27.4706 10.629 27.2963 8.85871 27.636 7.15076C27.9757 5.44282 28.8142 3.87398 30.0457 2.64262C31.277 1.41126 32.8458 0.572696 34.5538 0.232966C36.2617 -0.106766 38.0321 0.0675967 39.6409 0.734003C41.2497 1.40041 42.6249 2.52893 43.5923 3.97685C44.5598 5.42477 45.0762 7.12707 45.0762 8.86847C45.0736 11.2028 44.145 13.4408 42.4944 15.0915C40.8438 16.7421 38.6059 17.6705 36.2715 17.6732ZM36.2715 1.97784C34.9086 1.97784 33.5764 2.38197 32.4433 3.13912C31.3101 3.89628 30.427 4.97245 29.9054 6.23154C29.3839 7.49064 29.2474 8.87612 29.5133 10.2128C29.7791 11.5494 30.4354 12.7772 31.3991 13.7409C32.3628 14.7046 33.5905 15.3609 34.9272 15.6267C36.2639 15.8926 37.6494 15.7561 38.9084 15.2346C40.1675 14.713 41.2437 13.8298 42.0009 12.6967C42.758 11.5636 43.1622 10.2313 43.1622 8.86847C43.16 7.04161 42.4334 5.29015 41.1416 3.99836C39.8498 2.70657 38.0983 1.97993 36.2715 1.97784Z" fill="white"/>
<path d="M48.043 34.1532H24.5C24.2462 34.1532 24.0028 34.0524 23.8233 33.873C23.6438 33.6934 23.543 33.45 23.543 33.1962V28.4876C23.543 25.1118 24.884 21.8743 27.2711 19.4872C29.6582 17.1002 32.8956 15.7591 36.2714 15.7591C39.6473 15.7591 42.8848 17.1002 45.2719 19.4872C47.6589 21.8743 49 25.1118 49 28.4876V33.1962C49 33.45 48.8991 33.6934 48.7197 33.873C48.5402 34.0524 48.2967 34.1532 48.043 34.1532ZM25.457 32.2391H47.0859V28.4876C47.0859 25.6194 45.9466 22.8688 43.9185 20.8406C41.8903 18.8125 39.1397 17.6732 36.2714 17.6732C33.4033 17.6732 30.6527 18.8125 28.6245 20.8406C26.5964 22.8688 25.457 25.6194 25.457 28.4876V32.2391Z" fill="white"/>
</g>
</g>
<defs>
<clipPath id="clip0_8_28">
<rect width="49" height="49" fill="white"/>
</clipPath>
</defs>
</svg>
