<svg width="52" height="52" viewBox="0 0 52 52" fill="none" xmlns="http://www.w3.org/2000/svg">
<path d="M39.481 9.94657C40.0323 9.83586 40.3896 9.29914 40.2789 8.74778C40.1682 8.19643 39.6314 7.83922 39.0801 7.94994C38.5286 8.06065 38.1715 8.59738 38.2822 9.14873C38.3929 9.70009 38.9296 10.0573 39.481 9.94657Z" fill="white"/>
<path d="M50.4005 12.8595L43.7657 9.90947C43.2523 9.68116 42.6508 9.91231 42.4225 10.4259C42.194 10.9394 42.4253 11.5408 42.9388 11.7692L49.5736 14.7193C49.9266 14.8762 49.9647 15.1925 49.9647 15.3212C49.9647 15.4499 49.9266 15.7662 49.5736 15.9232L27.6647 25.6645C27.4945 25.7404 27.2992 25.7403 27.1293 25.6645L5.22041 15.9231C4.86738 15.7662 4.82929 15.4499 4.82929 15.3211C4.82929 15.1925 4.86738 14.876 5.22052 14.7192L27.1293 4.9778C27.2992 4.90193 27.4945 4.90193 27.6647 4.9778L34.6276 8.07362C35.1411 8.30194 35.7425 8.07088 35.9709 7.55718C36.1993 7.04368 35.9681 6.44233 35.4545 6.21392L28.4917 3.11809C27.7961 2.80883 26.9983 2.80873 26.3026 3.11809L4.39359 12.8595C3.40702 13.2982 2.79398 14.2415 2.79398 15.3212V32.1637C1.19793 32.5157 0 33.9408 0 35.6411V41.1617C0 42.5644 1.14126 43.7057 2.54404 43.7057H5.07924C6.48203 43.7057 7.62328 42.5644 7.62328 41.1617V35.6411C7.62328 33.9407 6.42525 32.5156 4.8292 32.1637V17.9765L9.64285 20.1169V30.4883C9.64285 31.9324 10.5118 33.2069 11.8565 33.7353L26.2655 39.3965C26.6767 39.5577 27.1085 39.6384 27.5405 39.6384C27.9726 39.6384 28.4049 39.5577 28.8163 39.3963L33.1059 37.7113L34.8993 44.4041C35.105 45.172 35.6861 45.7531 36.4538 45.9587C37.2214 46.1641 38.0155 45.9518 38.5774 45.3897C38.6169 45.3502 38.662 45.3418 38.6928 45.3418C38.7236 45.3418 38.7686 45.3501 38.8083 45.3898L41.8932 48.4746C42.3045 48.8859 42.8683 49.1185 43.4485 49.1185C43.4697 49.1185 43.4911 49.1182 43.5124 49.1176C44.1151 49.0998 44.6905 48.8312 45.0912 48.3804L48.2901 44.7805C49.0621 43.9117 49.023 42.5873 48.2013 41.7656L45.3168 38.8812C45.2773 38.8418 45.2689 38.7966 45.2689 38.7658C45.2689 38.7349 45.2773 38.6898 45.3168 38.6503C45.8787 38.0884 46.0915 37.2945 45.8858 36.5269C45.68 35.759 45.099 35.1779 44.3312 34.9722L41.8017 34.2945L43.0201 33.8156C44.3643 33.2876 45.2327 32.0131 45.2327 30.5687V20.0806L50.4004 17.7828C51.3869 17.3442 51.9999 16.4009 51.9999 15.3212C52 14.2415 51.3871 13.2982 50.4005 12.8595ZM5.58807 35.6411V41.1617C5.58807 41.4422 5.35976 41.6705 5.07924 41.6705H2.54404C2.26353 41.6705 2.03522 41.4422 2.03522 41.1617V35.6411C2.03522 34.7993 2.71995 34.1146 3.5616 34.1146H4.06159C4.90334 34.1146 5.58807 34.7994 5.58807 35.6411ZM43.92 37.0534C43.9443 37.1444 43.8942 37.1945 43.8777 37.2111C43.4625 37.6263 43.2339 38.1783 43.2339 38.7656C43.2339 39.3529 43.4626 39.9049 43.8777 40.3201L46.7621 43.2045C46.8232 43.2656 46.826 43.3638 46.7687 43.4284L43.5697 47.0282C43.531 47.0718 43.4846 47.0819 43.4525 47.083C43.4201 47.0828 43.3734 47.0764 43.3323 47.0351L40.2474 43.9503C39.8321 43.5351 39.2802 43.3064 38.6928 43.3064C38.1055 43.3064 37.5534 43.5351 37.1382 43.9503C37.1217 43.9668 37.0717 44.0173 36.9806 43.9926C36.8896 43.9682 36.8711 43.8997 36.8652 43.8772L34.3983 34.671C34.3924 34.6485 34.374 34.5799 34.4406 34.5133C34.5073 34.4464 34.5758 34.465 34.5982 34.4709L43.8044 36.9378C43.827 36.944 43.8956 36.9624 43.92 37.0534ZM43.1977 30.5686C43.1977 31.1704 42.8359 31.7013 42.2761 31.9212L38.4929 33.4077L35.1251 32.5053C34.3572 32.2993 33.5635 32.5123 33.0015 33.0743C32.4396 33.6363 32.2268 34.4302 32.4325 35.198L32.5758 35.7329L28.0727 37.5018C27.7297 37.6362 27.3518 37.6363 27.0091 37.502L12.6008 31.8408C12.0403 31.6208 11.6781 31.0899 11.6781 30.4883V21.0218L26.3026 27.5244C26.6504 27.6791 27.0238 27.7563 27.3971 27.7563C27.7705 27.7563 28.1438 27.6791 28.4917 27.5244L43.1977 20.9856V30.5686Z" fill="white"/>
</svg>
